<?xml version="1.0" encoding="UTF-8"?>
<svg id="Layer_2" data-name="Layer 2" xmlns="http://www.w3.org/2000/svg" xmlns:xlink="http://www.w3.org/1999/xlink" viewBox="0 0 73.27 77.54">
  <defs>
    <style>
      .cls-1 {
        fill: url(#linear-gradient-2);
      }

      .cls-2 {
        fill: url(#radial-gradient);
      }

      .cls-3 {
        fill: lime;
      }

      .cls-4 {
        fill: url(#linear-gradient);
      }

      .cls-5 {
        fill: #004080;
      }
    </style>
    <linearGradient id="linear-gradient" x1="6.06" y1="17.27" x2="65.41" y2="17.27" gradientUnits="userSpaceOnUse">
      <stop offset=".1" stop-color="lime"/>
      <stop offset=".23" stop-color="#00ca23"/>
      <stop offset=".43" stop-color="#008054"/>
      <stop offset=".58" stop-color="#005174"/>
      <stop offset=".65" stop-color="#004080"/>
    </linearGradient>
    <linearGradient id="linear-gradient-2" x1="19.52" y1="65.7" x2="51.88" y2="65.7" gradientUnits="userSpaceOnUse">
      <stop offset=".23" stop-color="lime"/>
      <stop offset=".79" stop-color="#004080"/>
    </linearGradient>
    <radialGradient id="radial-gradient" cx="1357.53" cy="475.56" fx="1357.53" fy="475.56" r="137.35" gradientTransform="translate(-195.8 -32.46) scale(.15)" gradientUnits="userSpaceOnUse">
      <stop offset=".2" stop-color="#004080"/>
      <stop offset=".42" stop-color="#00427e"/>
      <stop offset=".54" stop-color="#004a79"/>
      <stop offset=".63" stop-color="#00576f"/>
      <stop offset=".72" stop-color="#006b62"/>
      <stop offset=".79" stop-color="#008452"/>
      <stop offset=".86" stop-color="#00a33d"/>
      <stop offset=".92" stop-color="#00c824"/>
      <stop offset=".98" stop-color="#00f109"/>
      <stop offset="1" stop-color="lime"/>
    </radialGradient>
  </defs>
  <g id="Layer_1-2" data-name="Layer 1">
    <g>
      <path class="cls-4" d="M6.06,16.93c4.56-7.59,10.15-11.28,12.14-12.48C20.83,2.86,28.2-1.09,37.76,.29c5.64,.82,9.85,3.18,12.14,4.68,4.61,3.04,7.29,6.54,9.44,9.36,0,0,2.62,3.43,5.17,9.36,.38,.88,.9,2.17,.9,3.9,0,.68,0,3.28-1.8,5.2-1.43,1.53-3.44,2.05-5.17,1.56-1.88-.54-2.93-2.12-3.6-3.12-1.23-1.86-1.06-2.87-1.93-5-1.13-2.75-2.74-4.3-5.26-6.7-1.87-1.79-3.44-3.27-5.84-4.42-4.53-2.17-8.75-1.42-11.16-.99-4.03,.72-6.79,2.38-7.5,2.81-.52,.32-2.76,1.74-5.17,4.42"/>
      <path class="cls-1" d="M26.5,63.33c1.67,.64,3.71,1.17,6.09,1.19,3.43,.03,6.07-.99,7.91-1.81h0s0,0,0,0c.22-.1,.43-.19,.62-.28,2.6-1.18,4.18-2.41,6.74-4.41,.05-.04,.1-.08,.14-.11,1.61-.74,2.97-2.18,3.87-4.05v17.15c-1.76,1.25-6.47,4.45-10.98,5.48-2.77,.63-6.62,1.51-11.69,.78-3.74-.54-6.99-1.79-9.7-3.26"/>
      <path class="cls-2" d="M19.52,74c-3.81-2.07-6.55-4.56-8.06-6.1-2.94-2.98-6.58-7.72-8.99-14.56C-.6,44.61-.05,37.01,.22,34.36c.21-2.04,1.15-9.6,5.84-17.43l11.91,4.42c-1.37,1.52-3.18,3.53-4.49,6.76-1.5,3.69-1.54,6.97-1.57,9.88-.01,1.1,0,4.77,1.12,9.36,.68,2.75,1.28,5.19,2.92,7.8,2.19,3.47,4.86,5.1,6.74,6.24,.85,.52,2.14,1.29,3.8,1.93"/>
      <path class="cls-5" d="M65.83,50.54v21.49c0,2.98-2.57,5.39-5.74,5.39h-2.47c-3.17,0-5.74-2.42-5.74-5.39v-21.49h13.95Z"/>
      <path class="cls-3" d="M73.27,37.58s0,2.91,0,2.91c0,5.62-3.55,10.18-7.93,10.18h-12.94c-4.38,0-7.93-4.56-7.93-10.19v-2.91h5.92s0,.66,0,.66c0,3.43,2.16,6.21,4.83,6.21h7.3c2.67,0,4.83-2.78,4.83-6.21,0,0,0-.66,0-.66h5.92Z"/>
      <ellipse class="cls-5" cx="70.24" cy="38.35" rx="3.03" ry="3.26"/>
      <ellipse class="cls-5" cx="47.47" cy="38.35" rx="3.03" ry="3.26"/>
    </g>
  </g>
</svg>